# Tiled2Unity generated file. Do not modify by hand.
# Wavefront file for 'test_house_mesh_0002.obj'

# Vertices (Count = 88)
v -48 -32 0
v -64 -32 0
v -64 -16 0
v -48 -16 0
v -32 -32 0
v -48 -32 0
v -48 -16 0
v -32 -16 0
v -16 -32 0
v -32 -32 0
v -32 -16 0
v -16 -16 0
v -128 -48 0
v -144 -48 0
v -144 -32 0
v -128 -32 0
v -48 -48 0
v -64 -48 0
v -64 -32 0
v -48 -32 0
v -32 -48 0
v -48 -48 0
v -48 -32 0
v -32 -32 0
v -16 -48 0
v -32 -48 0
v -32 -32 0
v -16 -32 0
v -112 -80 0
v -128 -80 0
v -128 -64 0
v -112 -64 0
v -96 -80 0
v -112 -80 0
v -112 -64 0
v -96 -64 0
v -80 -80 0
v -96 -80 0
v -96 -64 0
v -80 -64 0
v -112 -96 0
v -128 -96 0
v -128 -80 0
v -112 -80 0
v -96 -96 0
v -112 -96 0
v -112 -80 0
v -96 -80 0
v -80 -96 0
v -96 -96 0
v -96 -80 0
v -80 -80 0
v -48 -96 0
v -64 -96 0
v -64 -80 0
v -48 -80 0
v -32 -96 0
v -48 -96 0
v -48 -80 0
v -32 -80 0
v -112 -112 0
v -128 -112 0
v -128 -96 0
v -112 -96 0
v -96 -112 0
v -112 -112 0
v -112 -96 0
v -96 -96 0
v -80 -112 0
v -96 -112 0
v -96 -96 0
v -80 -96 0
v -48 -112 0
v -64 -112 0
v -64 -96 0
v -48 -96 0
v -32 -112 0
v -48 -112 0
v -48 -96 0
v -32 -96 0
v -48 -128 0
v -64 -128 0
v -64 -112 0
v -48 -112 0
v -32 -128 0
v -48 -128 0
v -48 -112 0
v -32 -112 0

# Texture cooridinates (Count = 68)
vt 0.2985537 0.7756654
vt 0.3150826 0.7756654
vt 0.3150826 0.8060837
vt 0.2985537 0.8060837
vt 0.2809917 0.7756654
vt 0.2975207 0.7756654
vt 0.2975207 0.8060837
vt 0.2809917 0.8060837
vt 0.2634298 0.7756654
vt 0.2799587 0.7756654
vt 0.2799587 0.8060837
vt 0.2634298 0.8060837
vt 0.2634298 0.9372624
vt 0.2799587 0.9372624
vt 0.2799587 0.9676806
vt 0.2634298 0.9676806
vt 0.8078513 0.06463879
vt 0.8243802 0.06463879
vt 0.8243802 0.09505701
vt 0.8078513 0.09505701
vt 0.7902893 0.06463879
vt 0.8068182 0.06463879
vt 0.8068182 0.09505701
vt 0.7902893 0.09505701
vt 0.7727273 0.06463879
vt 0.7892562 0.06463879
vt 0.7892562 0.09505701
vt 0.7727273 0.09505701
vt 0.8078513 0.03231937
vt 0.8243802 0.03231937
vt 0.8243802 0.06273764
vt 0.8078513 0.06273764
vt 0.7902893 0.03231937
vt 0.8068182 0.03231937
vt 0.8068182 0.06273764
vt 0.7902893 0.06273764
vt 0.7727273 0.03231937
vt 0.7892562 0.03231937
vt 0.7892562 0.06273764
vt 0.7727273 0.06273764
vt 0.3336777 0.8079848
vt 0.3502066 0.8079848
vt 0.3502066 0.838403
vt 0.3336777 0.838403
vt 0.8078513 0
vt 0.8243802 0
vt 0.8243802 0.03041828
vt 0.8078513 0.03041828
vt 0.7902893 0
vt 0.8068182 0
vt 0.8068182 0.03041828
vt 0.7902893 0.03041828
vt 0.7727273 0
vt 0.7892562 0
vt 0.7892562 0.03041828
vt 0.7727273 0.03041828
vt 0.3512397 0.7756654
vt 0.3677686 0.7756654
vt 0.3677686 0.8060837
vt 0.3512397 0.8060837
vt 0.3336777 0.7756654
vt 0.3502066 0.7756654
vt 0.3502066 0.8060837
vt 0.3336777 0.8060837
vt 0.3512397 0.8079848
vt 0.3677686 0.8079848
vt 0.3677686 0.838403
vt 0.3512397 0.838403

# Normal
vn 0 0 -1

# Mesh description
g test_house_mesh_0002

# Faces
f 1/1/1 2/2/1 3/3/1 4/4/1
f 5/5/1 6/6/1 7/7/1 8/8/1
f 9/9/1 10/10/1 11/11/1 12/12/1
f 13/13/1 14/14/1 15/15/1 16/16/1
f 17/1/1 18/2/1 19/3/1 20/4/1
f 21/5/1 22/6/1 23/7/1 24/8/1
f 25/9/1 26/10/1 27/11/1 28/12/1
f 29/17/1 30/18/1 31/19/1 32/20/1
f 33/21/1 34/22/1 35/23/1 36/24/1
f 37/25/1 38/26/1 39/27/1 40/28/1
f 41/29/1 42/30/1 43/31/1 44/32/1
f 45/33/1 46/34/1 47/35/1 48/36/1
f 49/37/1 50/38/1 51/39/1 52/40/1
f 53/41/1 54/42/1 55/43/1 56/44/1
f 57/41/1 58/42/1 59/43/1 60/44/1
f 61/45/1 62/46/1 63/47/1 64/48/1
f 65/49/1 66/50/1 67/51/1 68/52/1
f 69/53/1 70/54/1 71/55/1 72/56/1
f 73/57/1 74/58/1 75/59/1 76/60/1
f 77/61/1 78/62/1 79/63/1 80/64/1
f 81/65/1 82/66/1 83/67/1 84/68/1
f 85/65/1 86/66/1 87/67/1 88/68/1

